<svg width="34" height="34" viewBox="0 0 34 34" fill="none" xmlns="http://www.w3.org/2000/svg">
<rect width="34" height="34" rx="8" fill="#0E9B68"/>
<path d="M27 17C27 11.5161 22.4839 7 17 7C11.4758 7 7 11.5161 7 17C7 22.5242 11.4758 27 17 27C22.4839 27 27 22.5242 27 17ZM15.8306 22.3226C15.5887 22.5645 15.1452 22.5645 14.9032 22.3226L10.7097 18.129C10.4677 17.8871 10.4677 17.4435 10.7097 17.2016L11.6371 16.3145C11.879 16.0323 12.2823 16.0323 12.5242 16.3145L15.3871 19.1371L21.4355 13.0887C21.6774 12.8065 22.0806 12.8065 22.3226 13.0887L23.25 13.9758C23.4919 14.2177 23.4919 14.6613 23.25 14.9032L15.8306 22.3226Z" fill="white"/>
</svg>
